
<svg id="Calque_1" data-name="Calque 1" xmlns="http://www.w3.org/2000/svg" viewBox="0 0 595.28 841.89"><defs><style>.cls-1{fill:none;}</style></defs><title>Eric_pancarte</title><path class="cls-1" d="M96.45,390.32c-.42,8.09,6.55,14.55,15.35,14.33C104.54,402.47,99.83,397.55,96.45,390.32Z"/><path class="cls-1" d="M220.09,293.83c-3,12.7-4.56,25.77-7.68,38.45-2.61,10.63.2,23.2-10.74,30.73,10.72,0,20.79-.07,30.86,0,7,.06,14-4,15.95-10.89.53-1.92.78-4,1.76-5.69,9.47-16.11,7.71-34.2,7.89-51.5.16-16.27.63-32,7.18-47.22-2.85.57-5.9,1.23-9,1.77-14.15,2.47-24.59,9.08-28.65,23.91C225.76,280.38,221.77,286.82,220.09,293.83Z"/><path class="cls-1" d="M207.22,272.26c-9.22,10.43-17.87,21.88-24.17,34.23-6,11.8-8.68,25.3-12.93,38-1.93,5.74-4.15,11.38-6.58,18,7.07.64,14.53,2.36,21.8,1.75,12.87-1.08,20.49-7.44,21-21.11a68.21,68.21,0,0,1,1.3-9.83c1.8-9.59,3.52-19.2,5.66-28.72,1.88-8.37,3.92-16.74,6.57-24.89,2.13-6.52,5.3-12.71,8.47-20.16C220.47,264.11,212.15,266.69,207.22,272.26Z"/><path class="cls-1" d="M162.8,352c3.72-11.32,7.44-22.66,11-34,3-9.35,5.67-18.69,13.35-25.72,3-2.73,4.91-6.64,7.25-10.05,2.59-3.79,4.65-8.05,7.76-11.33s7.43-5.82,11.85-9.15c-2,.11-3.41-.16-4.51.31-9.46,4-19.38,7.28-28.18,12.45a59.42,59.42,0,0,0-28.23,37.09c-1.48,5.56-4.07,10.87-6.54,16.11-4.05,8.55-9.64,16.59-12.33,25.52-3,10-10,15.25-17.85,20.29-2,1.26-4,2.4-5.9,3.75-2.73,2-5.36,4.07-8,6.12a26.13,26.13,0,0,0,9.74-2.36c12.52-5.63,25-11.3,37.45-17.16C155.17,361.23,160.69,358.39,162.8,352Z"/><path class="cls-1" d="M357.45,275c4.78,10,8.84,20.34,13,30.63a27.19,27.19,0,0,1,2.06,8.66c.66,13.69-.29,27.57,5.29,40.59,1.27,3,2.44,6.18,4.46,8.62,4.56,5.49,10.92,7.61,17.9,8.24a50,50,0,0,1,9.69,1.6c5.18,1.52,10.23,3.51,14.83,5.12-2.84-5.91-6-11.12-7.87-16.77-2-6.11-2.47-12.69-4-19-2.17-8.68-4.48-17.33-7.22-25.85-2.05-6.36-4.83-12.5-7.37-18.7-.69-1.66-2.07-3.08-2.51-4.78-1.79-6.88-4.68-12.67-10.58-17.37-11.93-9.5-24.83-16.66-41.24-20.53,1.89,2.47,3,3.85,4,5.3C351.14,265.5,355,269.9,357.45,275Z"/><path class="cls-1" d="M262.24,311.57a211.68,211.68,0,0,1-4.87,30.82c-1.67,6.77-5.52,13-7.91,18.36l73.44-.83c-1.94-3-4.25-5.16-4.82-7.71-2.1-9.53-4.24-19.13-5.18-28.82-.72-7.36,1.17-15,.44-22.34-1.37-13.92-3.72-27.73-5.8-41.57A16.82,16.82,0,0,0,290,244.72a106.73,106.73,0,0,0-11.39,1.3c-6.13.87-12.25,6.51-13.05,12.56-1.2,9-2.33,18.08-2.87,27.16C262.2,294.33,263.05,303,262.24,311.57Z"/><path class="cls-1" d="M90,420.22A244.43,244.43,0,0,1,84.48,388c-2-18.8-4-37.66-4.5-56.54-.71-24.37,4.09-48.16,10.86-71.52A7.66,7.66,0,0,1,94.12,256c8.93-5.37,12.62-14.53,9.29-24.26-.56-1.65-2.12-3-3.22-4.44l-2.54.67c-.09,4.3-.61,8.64-.17,12.88.59,5.81-4.14,12.32-9.94,12.71a6.5,6.5,0,0,1-1.9-.39l-14.15-3.43c1.24,3.68,1.36,6.46,2.8,7.88,6.65,6.5,4.92,14.33,4,22-1.94,17.13-5.9,34.1-4.54,51.51.81,10.25,1.88,20.49,3,30.72,2,18.29,3.6,36.62,6.23,54.82,1.6,11.08,7.76,20.46,14.69,29.48.6-3.08.88-6.17-.13-8.78C95.31,431.57,91.46,426.2,90,420.22Z"/><path class="cls-1" d="M266.92,682.2h-6.81c0,8.26-.44,8.72-8.32,8.7a84.71,84.71,0,0,0-9.43.2A17.86,17.86,0,0,0,235.3,693c-1.34.79-2.83,3.49-2.39,4.57.62,1.54,3,3.37,4.56,3.29,2.66-.13,5.22-1.72,7.87-2.55,4.19-1.31,8.36-3.23,12.64-3.59,8.8-.73,9.54-1.11,9.25-9.89C267.2,684.05,267,683.25,266.92,682.2Z"/><path class="cls-1" d="M314.73,280.52c.5,3.61,1,7.23,1.38,10.85.6,5.76,1.73,11.54,1.5,17.27a135.36,135.36,0,0,0,3.22,36.58c2.08,8.84,7.16,14.89,16.32,16.59,9.94,1.84,19.94,3.41,30,4.8,3.44.48,7,.08,9.87.08-2.82-8.56-6.22-16.51-7.92-24.8-1.31-6.41,0-13.32-.77-19.89a107.28,107.28,0,0,0-4.35-18.64c-1.77-5.68-4.4-11.08-6.57-16.64-3.39-8.7-6.69-17-13.46-24.31-10.4-11.31-23-15.09-37.78-16.73,1.93,3.74,4.28,6.65,4.92,9.89C312.68,263.8,313.57,272.19,314.73,280.52Z"/><path class="cls-1" d="M404.39,381.62c-1.05-1.63-2.31-3.89-3.88-4.29-7.35-1.89-14.81-3.39-22.29-4.74-6.36-1.14-12.78-1.87-19.17-2.8-10-1.45-20-3.72-30-4.2-18.94-.91-37.93-1.28-56.89-1-15.57.26-31.13,1.85-46.69,2.85-3.81.25-7.62.71-11.43.74-16.09.12-32.22,2.22-48.22-1.43-7.08-1.61-15.05,1.26-18,6-24.85,39.68-33,82.9-27.11,129,5.61,43.48,22.8,81.72,53.3,113.49S241.33,664.92,291.3,666c6.33-1,18.22-1.83,29.53-4.85,46.89-12.5,78.64-43,98.85-86.1,16.18-34.46,20.71-70.88,15.75-108.51A203.06,203.06,0,0,0,404.39,381.62Zm-128.57-5.27a4.39,4.39,0,1,1-4.38,4.38A4.38,4.38,0,0,1,275.82,376.35Zm-15.27,1.8a4,4,0,1,1-4,4A4,4,0,0,1,260.55,378.15Zm48.26-1.41a74.67,74.67,0,0,1-16.17,13,54.88,54.88,0,0,1-17.73,6.71,50.85,50.85,0,0,1-19.74-.47,107.2,107.2,0,0,1-19.33-6A58.74,58.74,0,0,1,220,380c-1.82-1.6.84-4.24,2.65-2.66a55,55,0,0,0,17.23,10.17c11.73,4.32,24.18,7.72,36.64,4.72,11.55-2.77,21.48-9.69,29.6-18.16C307.84,372.34,310.49,375,308.81,376.74Z"/><path class="cls-1" d="M456.16,382.81c-4-2.9-9-5.4-11.47-9.35-5.3-8.32-10.63-16.91-11.26-27.31-1-16.72-7.05-31.56-17-45-2-2.78-3.75-5.82-5.58-8.77-2.41-3.9-4.05-8.66-7.36-11.52-4.89-4.24-10.94-7.12-16.5-10.58l-1,1.35a18.85,18.85,0,0,0,3.27,2.95c5,2.76,7.47,7.3,9.33,12.41a99.83,99.83,0,0,0,4,9.48c1.58,3.26,3.84,6.25,5,9.63,1.58,4.51,2.39,9.28,3.57,13.93,2.82,11.08,5.52,22.19,8.58,33.21,1.65,6,3.12,12.23,6.17,17.49,2.64,4.57,7.32,8,11.24,11.79a12.09,12.09,0,0,0,4.54,2.89c10.08,3.15,20.21,6.11,30.32,9.13C467,390.21,461.48,386.64,456.16,382.81Z"/><path class="cls-1" d="M493.09,310.93c-2.9-24.18-7.3-48.21-16.91-71-1.08-2.54.44-6.27,1-9.4a65.91,65.91,0,0,1,1.94-6.63l-7.88.7c-.43,1.36-.83,2.67-1.33,4.27-1.4-.42-2.47-.75-3.55-1.06a13.8,13.8,0,0,0-3.77-1c-6.76.08-6.85.15-7.7-6.63-.34-2.79-.06-5.66-.37-8.46s-1-5.31-1.56-8.21a8.93,8.93,0,0,0-1.68.91,6.34,6.34,0,0,0-.8,1.23c-4.18,7.77-1.64,15.12,1.28,22.51,1.44,3.66,3.49,6,7.73,6.76,4.45.77,8.08,3,8.39,8.42.08,1.42,1,2.81,1.56,4.17a200.57,200.57,0,0,1,15.37,50.82c3.61,23.27,5.7,46.79,8,70.25a108.62,108.62,0,0,1-8.43,53.58c-3.65,8.57-9.28,16.42-14.88,24-1.94,2.61-2.92,4.27-1.65,7.8,1.41-1.11,2.55-1.95,3.62-2.86,11.13-9.41,16.43-22.32,21-35.55,3.81-11,6.82-22.34,6.06-34.12C497,357.91,495.9,334.31,493.09,310.93Z"/><path class="cls-1" d="M301.63,679.69a8,8,0,0,0-.44-1.33c-8.15-.28-8.48,0-7.71,7.77.08.83.18,1.65.22,2.48.15,3,1.79,4,4.75,4.57,5.67,1,11.21,2.72,16.82,4.08,2.71.65,5.48,1.69,8.18,1.57,1.72-.07,4.4-1.69,4.75-3.09s-1.39-4.4-2.8-4.85a46.62,46.62,0,0,0-13.46-2.57C302.94,688.25,302.79,688.45,301.63,679.69Z"/><path class="cls-1" d="M422.52,227.34c-14.92.85-29.8,2.81-44.72,3.09-19.61.37-39.24-.49-58.87-.71-18.8-.21-37.55-.14-56.25,2.86-21.46,3.44-43,6.18-64.61,8.91-12.49,1.59-25.06,2.66-37.61,3.77-8.44.75-16.92,1-25.37,1.75-8.26.69-16.51,1.6-24.75,2.56a7.57,7.57,0,0,0-3.63,1.68c-2.91,2.37-5.75,4.83-8.43,7.45-1.42,1.39-3.12,3-3.55,4.81C92,275,89,286.39,87.26,298c-1.63,10.63-2.89,21.51-2.47,32.21.82,20.89,2.61,41.77,4.66,62.58,1,9.67,3.17,19.26,5.43,28.74.93,3.93,3.44,7.47,5.66,12.08,3.48-8.69,6.4-16,9.41-23.49a24.38,24.38,0,0,1-3.86-.93C94.16,404,86.3,393.82,96.65,382.71c5.09-5.46,12.08-9.16,18.25-13.61,4.75-3.43,10.47-5.55,13-11.69,3.67-8.87,8-17.48,11.83-26.27,3.4-7.73,7.3-15.35,9.69-23.4A59.58,59.58,0,0,1,165,281.48c15-14.45,33.32-22.8,53.92-25.5,8-1,15.64-2.62,22.81-6.4a28.11,28.11,0,0,1,7.89-3c12.07-2.18,24.19-4.06,36.28-6.12,12.45-2.12,24.58.32,36.5,3.22,9.94,2.42,19.6,6.06,29.3,9.4,7.32,2.52,14.52,5.4,21.75,8.17,7.86,3,16,5.54,23.48,9.26s13.92,9.44,17.25,17.81a47.94,47.94,0,0,0,5.28,9.49c10.12,14.5,17.45,29.84,18.49,48a41,41,0,0,0,12.37,26.58c6.76,6.62,15.42,11.36,23.41,16.67,6,4,8.24,10.13,5.43,16.7-3.34,7.81-9.23,13.2-17.08,17,1.54,6.58,3.05,13,4.61,19.66,1-.49,1.4-.56,1.59-.79a20.84,20.84,0,0,0,1.55-2,102,102,0,0,0,18.31-54.47c.58-12.2-.48-24.55-1.73-36.74-1.83-18-3.23-36.17-7.15-53.75s-10.71-34.75-16.4-52a4.78,4.78,0,0,0-3.14-2.75c-7.43-1.07-11.37-5.67-13.27-12.74h-.1l.34.84-.34-.84C438.05,227.26,430.26,226.91,422.52,227.34Z"/><path d="M260.55,386.16a4,4,0,1,0-4-4A4,4,0,0,0,260.55,386.16Z"/><path d="M275.82,385.12a4.39,4.39,0,1,0-4.38-4.39A4.39,4.39,0,0,0,275.82,385.12Z"/><path d="M306.16,374.09c-8.12,8.47-18.05,15.39-29.6,18.16-12.46,3-24.91-.4-36.64-4.72a55,55,0,0,1-17.23-10.17c-1.81-1.58-4.47,1.06-2.65,2.66a58.74,58.74,0,0,0,15.8,9.91,107.2,107.2,0,0,0,19.33,6,50.85,50.85,0,0,0,19.74.47,54.88,54.88,0,0,0,17.73-6.71,74.67,74.67,0,0,0,16.17-13C310.49,375,307.84,372.34,306.16,374.09Z"/><path class="cls-1" d="M314.73,280.52c.5,3.61,1,7.23,1.38,10.85.6,5.76,1.73,11.54,1.5,17.27a135.36,135.36,0,0,0,3.22,36.58c2.08,8.84,7.16,14.89,16.32,16.59,9.94,1.84,19.94,3.41,30,4.8,3.44.48,7,.08,9.87.08-2.82-8.56-6.22-16.51-7.92-24.8-1.31-6.41,0-13.32-.77-19.89a107.28,107.28,0,0,0-4.35-18.64c-1.77-5.68-4.4-11.08-6.57-16.64-3.39-8.7-6.69-17-13.46-24.31-10.4-11.31-23-15.09-37.78-16.73,1.93,3.74,4.28,6.65,4.92,9.89C312.68,263.8,313.57,272.19,314.73,280.52Z"/><path class="cls-1" d="M207.22,272.26c-9.22,10.43-17.87,21.88-24.17,34.23-6,11.8-8.68,25.3-12.93,38-1.93,5.74-4.15,11.38-6.58,18,7.07.64,14.53,2.36,21.8,1.75,12.87-1.08,20.49-7.44,21-21.11a68.21,68.21,0,0,1,1.3-9.83c1.8-9.59,3.52-19.2,5.66-28.72,1.88-8.37,3.92-16.74,6.57-24.89,2.13-6.52,5.3-12.71,8.47-20.16C220.47,264.11,212.15,266.69,207.22,272.26Z"/><path class="cls-1" d="M262.24,311.57a211.68,211.68,0,0,1-4.87,30.82c-1.67,6.77-5.52,13-7.91,18.36l73.44-.83c-1.94-3-4.25-5.16-4.82-7.71-2.1-9.53-4.24-19.13-5.18-28.82-.72-7.36,1.17-15,.44-22.34-1.37-13.92-3.72-27.73-5.8-41.57A16.82,16.82,0,0,0,290,244.72a106.73,106.73,0,0,0-11.39,1.3c-6.13.87-12.25,6.51-13.05,12.56-1.2,9-2.33,18.08-2.87,27.16C262.2,294.33,263.05,303,262.24,311.57Z"/><path class="cls-1" d="M357.45,275c4.78,10,8.84,20.34,13,30.63a27.19,27.19,0,0,1,2.06,8.66c.66,13.69-.29,27.57,5.29,40.59,1.27,3,2.44,6.18,4.46,8.62,4.56,5.49,10.92,7.61,17.9,8.24a50,50,0,0,1,9.69,1.6c5.18,1.52,10.23,3.51,14.83,5.12-2.84-5.91-6-11.12-7.87-16.77-2-6.11-2.47-12.69-4-19-2.17-8.68-4.48-17.33-7.22-25.85-2.05-6.36-4.83-12.5-7.37-18.7-.69-1.66-2.07-3.08-2.51-4.78-1.79-6.88-4.68-12.67-10.58-17.37-11.93-9.5-24.83-16.66-41.24-20.53,1.89,2.47,3,3.85,4,5.3C351.14,265.5,355,269.9,357.45,275Z"/><path class="cls-1" d="M220.09,293.83c-3,12.7-4.56,25.77-7.68,38.45-2.61,10.63.2,23.2-10.74,30.73,10.72,0,20.79-.07,30.86,0,7,.06,14-4,15.95-10.89.53-1.92.78-4,1.76-5.69,9.47-16.11,7.71-34.2,7.89-51.5.16-16.27.63-32,7.18-47.22-2.85.57-5.9,1.23-9,1.77-14.15,2.47-24.59,9.08-28.65,23.91C225.76,280.38,221.77,286.82,220.09,293.83Z"/><path class="cls-1" d="M422.52,227.34c-14.92.85-29.8,2.81-44.72,3.09-19.61.37-39.24-.49-58.87-.71-18.8-.21-37.55-.14-56.25,2.86-21.46,3.44-43,6.18-64.61,8.91-12.49,1.59-25.06,2.66-37.61,3.77-8.44.75-16.92,1-25.37,1.75-8.26.69-16.51,1.6-24.75,2.56-.2,0-.41.09-.62.14l-.62,7.12-4.77-3.6c-2.08,1.76-4.11,3.57-6,5.47-1.42,1.39-3.12,3-3.55,4.81C92,275,89,286.39,87.26,298c-1.63,10.63-2.89,21.51-2.47,32.21.82,20.89,2.61,41.77,4.66,62.58,1,9.67,3.17,19.26,5.43,28.74.93,3.93,3.44,7.47,5.66,12.08,3.48-8.69,6.4-16,9.41-23.49a24.38,24.38,0,0,1-3.86-.93C94.16,404,86.3,393.82,96.65,382.71c5.09-5.46,12.08-9.16,18.25-13.61,4.75-3.43,10.47-5.55,13-11.69,3.67-8.87,8-17.48,11.83-26.27,3.4-7.73,7.3-15.35,9.69-23.4A59.58,59.58,0,0,1,165,281.48c15-14.45,33.32-22.8,53.92-25.5,8-1,15.64-2.62,22.81-6.4a28.11,28.11,0,0,1,7.89-3c12.07-2.18,24.19-4.06,36.28-6.12,12.45-2.12,24.58.32,36.5,3.22,9.94,2.42,19.6,6.06,29.3,9.4,7.32,2.52,14.52,5.4,21.75,8.17,7.86,3,16,5.54,23.48,9.26s13.92,9.44,17.25,17.81a47.94,47.94,0,0,0,5.28,9.49c10.12,14.5,17.45,29.84,18.49,48a41,41,0,0,0,12.37,26.58c6.76,6.62,15.42,11.36,23.41,16.67,6,4,8.24,10.13,5.43,16.7-3.34,7.81-9.23,13.2-17.08,17,1.54,6.58,3.05,13,4.61,19.66,1-.49,1.4-.56,1.59-.79a20.84,20.84,0,0,0,1.55-2,102,102,0,0,0,18.31-54.47c.58-12.2-.48-24.55-1.73-36.74-1.83-18-3.23-36.17-7.15-53.75s-10.71-34.75-16.4-52a4.78,4.78,0,0,0-3.14-2.75c-7.43-1.07-11.37-5.67-13.27-12.74h-.1C438.05,227.26,430.26,226.91,422.52,227.34Z"/><path class="cls-1" d="M90,420.22A244.43,244.43,0,0,1,84.48,388c-2-18.8-4-37.66-4.5-56.54-.71-24.37,4.09-48.16,10.86-71.52A7.66,7.66,0,0,1,94.12,256c8.93-5.37,12.62-14.53,9.29-24.26-.56-1.65-2.12-3-3.22-4.44l-2.54.67c-.09,4.3-.61,8.64-.17,12.88.59,5.81-4.14,12.32-9.94,12.71a6.5,6.5,0,0,1-1.9-.39l-14.15-3.43c1.24,3.68,1.36,6.46,2.8,7.88,6.65,6.5,4.92,14.33,4,22-1.94,17.13-5.9,34.1-4.54,51.51.81,10.25,1.88,20.49,3,30.72,2,18.29,3.6,36.62,6.23,54.82,1.6,11.08,7.76,20.46,14.69,29.48.6-3.08.88-6.17-.13-8.78C95.31,431.57,91.46,426.2,90,420.22Z"/><path class="cls-1" d="M266.92,682.2h-6.81c0,8.26-.44,8.72-8.32,8.7a84.71,84.71,0,0,0-9.43.2A17.86,17.86,0,0,0,235.3,693c-1.34.79-2.83,3.49-2.39,4.57.62,1.54,3,3.37,4.56,3.29,2.66-.13,5.22-1.72,7.87-2.55,4.19-1.31,8.36-3.23,12.64-3.59,8.8-.73,9.54-1.11,9.25-9.89C267.2,684.05,267,683.25,266.92,682.2Z"/><path class="cls-1" d="M456.16,382.81c-4-2.9-9-5.4-11.47-9.35-5.3-8.32-10.63-16.91-11.26-27.31-1-16.72-7.05-31.56-17-45-2-2.78-3.75-5.82-5.58-8.77-2.41-3.9-4.05-8.66-7.36-11.52-4.89-4.24-10.94-7.12-16.5-10.58l-1,1.35a18.85,18.85,0,0,0,3.27,2.95c5,2.76,7.47,7.3,9.33,12.41a99.83,99.83,0,0,0,4,9.48c1.58,3.26,3.84,6.25,5,9.63,1.58,4.51,2.39,9.28,3.57,13.93,2.82,11.08,5.52,22.19,8.58,33.21,1.65,6,3.12,12.23,6.17,17.49,2.64,4.57,7.32,8,11.24,11.79a12.09,12.09,0,0,0,4.54,2.89c10.08,3.15,20.21,6.11,30.32,9.13C467,390.21,461.48,386.64,456.16,382.81Z"/><path class="cls-1" d="M493.09,310.93c-2.9-24.18-7.3-48.21-16.91-71-1.08-2.54.44-6.27,1-9.4a65.91,65.91,0,0,1,1.94-6.63l-7.88.7c-.43,1.36-.83,2.67-1.33,4.27-1.4-.42-2.47-.75-3.55-1.06a13.8,13.8,0,0,0-3.77-1c-6.76.08-6.85.15-7.7-6.63-.34-2.79-.06-5.66-.37-8.46s-1-5.31-1.56-8.21a8.93,8.93,0,0,0-1.68.91,6.34,6.34,0,0,0-.8,1.23c-4.18,7.77-1.64,15.12,1.28,22.51,1.44,3.66,3.49,6,7.73,6.76,4.45.77,8.08,3,8.39,8.42.08,1.42,1,2.81,1.56,4.17a200.57,200.57,0,0,1,15.37,50.82c3.61,23.27,5.7,46.79,8,70.25a108.62,108.62,0,0,1-8.43,53.58c-3.65,8.57-9.28,16.42-14.88,24-1.94,2.61-2.92,4.27-1.65,7.8,1.41-1.11,2.55-1.95,3.62-2.86,11.13-9.41,16.43-22.32,21-35.55,3.81-11,6.82-22.34,6.06-34.12C497,357.91,495.9,334.31,493.09,310.93Z"/><path class="cls-1" d="M404.39,381.62c-1.05-1.63-2.31-3.89-3.88-4.29-7.35-1.89-14.81-3.39-22.29-4.74-6.36-1.14-12.78-1.87-19.17-2.8-10-1.45-20-3.72-30-4.2-18.94-.91-37.93-1.28-56.89-1-15.57.26-31.13,1.85-46.69,2.85-3.81.25-7.62.71-11.43.74-16.09.12-32.22,2.22-48.22-1.43-7.08-1.61-15.05,1.26-18,6-24.85,39.68-33,82.9-27.11,129,5.61,43.48,22.8,81.72,53.3,113.49S241.33,664.92,291.3,666c6.33-1,18.22-1.83,29.53-4.85,46.89-12.5,78.64-43,98.85-86.1,16.18-34.46,20.71-70.88,15.75-108.51A203.06,203.06,0,0,0,404.39,381.62Z"/><path class="cls-1" d="M162.8,352c3.72-11.32,7.44-22.66,11-34,3-9.35,5.67-18.69,13.35-25.72,3-2.73,4.91-6.64,7.25-10.05,2.59-3.79,4.65-8.05,7.76-11.33s7.43-5.82,11.85-9.15c-2,.11-3.41-.16-4.51.31-9.46,4-19.38,7.28-28.18,12.45a59.42,59.42,0,0,0-28.23,37.09c-1.48,5.56-4.07,10.87-6.54,16.11-4.05,8.55-9.64,16.59-12.33,25.52-3,10-10,15.25-17.85,20.29-2,1.26-4,2.4-5.9,3.75-2.73,2-5.36,4.07-8,6.12a26.13,26.13,0,0,0,9.74-2.36c12.52-5.63,25-11.3,37.45-17.16C155.17,361.23,160.69,358.39,162.8,352Z"/><path class="cls-1" d="M96.45,390.32c-.42,8.09,6.55,14.55,15.35,14.33C104.54,402.47,99.83,397.55,96.45,390.32Z"/><path class="cls-1" d="M301.63,679.69a8,8,0,0,0-.44-1.33c-8.15-.28-8.48,0-7.71,7.77.08.83.18,1.65.22,2.48.15,3,1.79,4,4.75,4.57,5.67,1,11.21,2.72,16.82,4.08,2.71.65,5.48,1.69,8.18,1.57,1.72-.07,4.4-1.69,4.75-3.09s-1.39-4.4-2.8-4.85a46.62,46.62,0,0,0-13.46-2.57C302.94,688.25,302.79,688.45,301.63,679.69Z"/><path class="cls-1" d="M220.09,293.83c-3,12.7-4.56,25.77-7.68,38.45-2.61,10.63.2,23.2-10.74,30.73,10.72,0,20.79-.07,30.86,0,7,.06,14-4,15.95-10.89.53-1.92.78-4,1.76-5.69,9.47-16.11,7.71-34.2,7.89-51.5.16-16.27.63-32,7.18-47.22-2.85.57-5.9,1.23-9,1.77-14.15,2.47-24.59,9.08-28.65,23.91C225.76,280.38,221.77,286.82,220.09,293.83Z"/><path class="cls-1" d="M207.22,272.26c-9.22,10.43-17.87,21.88-24.17,34.23-6,11.8-8.68,25.3-12.93,38-1.93,5.74-4.15,11.38-6.58,18,7.07.64,14.53,2.36,21.8,1.75,12.87-1.08,20.49-7.44,21-21.11a68.21,68.21,0,0,1,1.3-9.83c1.8-9.59,3.52-19.2,5.66-28.72,1.88-8.37,3.92-16.74,6.57-24.89,2.13-6.52,5.3-12.71,8.47-20.16C220.47,264.11,212.15,266.69,207.22,272.26Z"/><path class="cls-1" d="M262.24,311.57a211.68,211.68,0,0,1-4.87,30.82c-1.67,6.77-5.52,13-7.91,18.36l73.44-.83c-1.94-3-4.25-5.16-4.82-7.71-2.1-9.53-4.24-19.13-5.18-28.82-.72-7.36,1.17-15,.44-22.34-1.37-13.92-3.72-27.73-5.8-41.57A16.82,16.82,0,0,0,290,244.72a106.73,106.73,0,0,0-11.39,1.3c-6.13.87-12.25,6.51-13.05,12.56-1.2,9-2.33,18.08-2.87,27.16C262.2,294.33,263.05,303,262.24,311.57Z"/><path class="cls-1" d="M90,420.22A244.43,244.43,0,0,1,84.48,388c-2-18.8-4-37.66-4.5-56.54-.71-24.37,4.09-48.16,10.86-71.52A7.66,7.66,0,0,1,94.12,256c8.93-5.37,12.62-14.53,9.29-24.26-.56-1.65-2.12-3-3.22-4.44l-2.54.67c-.09,4.3-.61,8.64-.17,12.88.59,5.81-4.14,12.32-9.94,12.71a6.5,6.5,0,0,1-1.9-.39l-14.15-3.43c1.24,3.68,1.36,6.46,2.8,7.88,6.65,6.5,4.92,14.33,4,22-1.94,17.13-5.9,34.1-4.54,51.51.81,10.25,1.88,20.49,3,30.72,2,18.29,3.6,36.62,6.23,54.82,1.6,11.08,7.76,20.46,14.69,29.48.6-3.08.88-6.17-.13-8.78C95.31,431.57,91.46,426.2,90,420.22Z"/><path class="cls-1" d="M314.73,280.52c.5,3.61,1,7.23,1.38,10.85.6,5.76,1.73,11.54,1.5,17.27a135.36,135.36,0,0,0,3.22,36.58c2.08,8.84,7.16,14.89,16.32,16.59,9.94,1.84,19.94,3.41,30,4.8,3.44.48,7,.08,9.87.08-2.82-8.56-6.22-16.51-7.92-24.8-1.31-6.41,0-13.32-.77-19.89a107.28,107.28,0,0,0-4.35-18.64c-1.77-5.68-4.4-11.08-6.57-16.64-3.39-8.7-6.69-17-13.46-24.31-10.4-11.31-23-15.09-37.78-16.73,1.93,3.74,4.28,6.65,4.92,9.89C312.68,263.8,313.57,272.19,314.73,280.52Z"/><path class="cls-1" d="M96.45,390.32c-.42,8.09,6.55,14.55,15.35,14.33C104.54,402.47,99.83,397.55,96.45,390.32Z"/><path class="cls-1" d="M357.45,275c4.78,10,8.84,20.34,13,30.63a27.19,27.19,0,0,1,2.06,8.66c.66,13.69-.29,27.57,5.29,40.59,1.27,3,2.44,6.18,4.46,8.62,4.56,5.49,10.92,7.61,17.9,8.24a50,50,0,0,1,9.69,1.6c5.18,1.52,10.23,3.51,14.83,5.12-2.84-5.91-6-11.12-7.87-16.77-2-6.11-2.47-12.69-4-19-2.17-8.68-4.48-17.33-7.22-25.85-2.05-6.36-4.83-12.5-7.37-18.7-.69-1.66-2.07-3.08-2.51-4.78-1.79-6.88-4.68-12.67-10.58-17.37-11.93-9.5-24.83-16.66-41.24-20.53,1.89,2.47,3,3.85,4,5.3C351.14,265.5,355,269.9,357.45,275Z"/><path class="cls-1" d="M266.92,682.2h-6.81c0,8.26-.44,8.72-8.32,8.7a84.71,84.71,0,0,0-9.43.2A17.86,17.86,0,0,0,235.3,693c-1.34.79-2.83,3.49-2.39,4.57.62,1.54,3,3.37,4.56,3.29,2.66-.13,5.22-1.72,7.87-2.55,4.19-1.31,8.36-3.23,12.64-3.59,8.8-.73,9.54-1.11,9.25-9.89C267.2,684.05,267,683.25,266.92,682.2Z"/><path class="cls-1" d="M404.39,381.62c-1.05-1.63-2.31-3.89-3.88-4.29-7.35-1.89-14.81-3.39-22.29-4.74-6.36-1.14-12.78-1.87-19.17-2.8-10-1.45-20-3.72-30-4.2-18.94-.91-37.93-1.28-56.89-1-15.57.26-31.13,1.85-46.69,2.85-3.81.25-7.62.71-11.43.74-16.09.12-32.22,2.22-48.22-1.43-7.08-1.61-15.05,1.26-18,6-24.85,39.68-33,82.9-27.11,129,5.61,43.48,22.8,81.72,53.3,113.49S241.33,664.92,291.3,666c6.33-1,18.22-1.83,29.53-4.85,46.89-12.5,78.64-43,98.85-86.1,16.18-34.46,20.71-70.88,15.75-108.51A203.06,203.06,0,0,0,404.39,381.62Z"/><path class="cls-1" d="M162.8,352c3.72-11.32,7.44-22.66,11-34,3-9.35,5.67-18.69,13.35-25.72,3-2.73,4.91-6.64,7.25-10.05,2.59-3.79,4.65-8.05,7.76-11.33s7.43-5.82,11.85-9.15c-2,.11-3.41-.16-4.51.31-9.46,4-19.38,7.28-28.18,12.45a59.42,59.42,0,0,0-28.23,37.09c-1.48,5.56-4.07,10.87-6.54,16.11-4.05,8.55-9.64,16.59-12.33,25.52-3,10-10,15.25-17.85,20.29-2,1.26-4,2.4-5.9,3.75-2.73,2-5.36,4.07-8,6.12a26.13,26.13,0,0,0,9.74-2.36c12.52-5.63,25-11.3,37.45-17.16C155.17,361.23,160.69,358.39,162.8,352Z"/><path class="cls-1" d="M493.09,310.93c-2.9-24.18-7.3-48.21-16.91-71-1.08-2.54.44-6.27,1-9.4a65.91,65.91,0,0,1,1.94-6.63l-7.88.7c-.43,1.36-.83,2.67-1.33,4.27-1.4-.42-2.47-.75-3.55-1.06a13.8,13.8,0,0,0-3.77-1c-6.76.08-6.85.15-7.7-6.63-.34-2.79-.06-5.66-.37-8.46s-1-5.31-1.56-8.21a8.93,8.93,0,0,0-1.68.91,6.34,6.34,0,0,0-.8,1.23c-4.18,7.77-1.64,15.12,1.28,22.51,1.44,3.66,3.49,6,7.73,6.76,4.45.77,8.08,3,8.39,8.42.08,1.42,1,2.81,1.56,4.17a200.57,200.57,0,0,1,15.37,50.82c3.61,23.27,5.7,46.79,8,70.25a108.62,108.62,0,0,1-8.43,53.58c-3.65,8.57-9.28,16.42-14.88,24-1.94,2.61-2.92,4.27-1.65,7.8,1.41-1.11,2.55-1.95,3.62-2.86,11.13-9.41,16.43-22.32,21-35.55,3.81-11,6.82-22.34,6.06-34.12C497,357.91,495.9,334.31,493.09,310.93Z"/><path class="cls-1" d="M456.16,382.81c-4-2.9-9-5.4-11.47-9.35-5.3-8.32-10.63-16.91-11.26-27.31-1-16.72-7.05-31.56-17-45-2-2.78-3.75-5.82-5.58-8.77-2.41-3.9-4.05-8.66-7.36-11.52-4.89-4.24-10.94-7.12-16.5-10.58l-1,1.35a18.85,18.85,0,0,0,3.27,2.95c5,2.76,7.47,7.3,9.33,12.41a99.83,99.83,0,0,0,4,9.48c1.58,3.26,3.84,6.25,5,9.63,1.58,4.51,2.39,9.28,3.57,13.93,2.82,11.08,5.52,22.19,8.58,33.21,1.65,6,3.12,12.23,6.17,17.49,2.64,4.57,7.32,8,11.24,11.79a12.09,12.09,0,0,0,4.54,2.89c10.08,3.15,20.21,6.11,30.32,9.13C467,390.21,461.48,386.64,456.16,382.81Z"/><path class="cls-1" d="M301.63,679.69a8,8,0,0,0-.44-1.33c-8.15-.28-8.48,0-7.71,7.77.08.83.18,1.65.22,2.48.15,3,1.79,4,4.75,4.57,5.67,1,11.21,2.72,16.82,4.08,2.71.65,5.48,1.69,8.18,1.57,1.72-.07,4.4-1.69,4.75-3.09s-1.39-4.4-2.8-4.85a46.62,46.62,0,0,0-13.46-2.57C302.94,688.25,302.79,688.45,301.63,679.69Z"/><path d="M501.25,344.08a431.31,431.31,0,0,0-5.91-48.9c-3-16.25-7.46-32.27-12-48.18-1.88-6.6-5-12.6.23-19,.77-.94.55-2.7.81-4.22v-4.35l-13.62.67h0c-10.06,5.39-10.76.54-10.76.54-.43-4.35-.78-8.59-1.3-12.8-.2-1.63-.39-3.49-1.28-4.76-1.22-1.75-3.09-4.22-4.7-4.23-2,0-4.61,1.76-5.77,3.54-3.94,6-4.18,12.77-2.47,20.09l1.88,4.75h.1c1.9,7.07,5.84,11.67,13.27,12.74a4.78,4.78,0,0,1,3.14,2.75c5.69,17.28,12.45,34.34,16.4,52s5.32,35.76,7.15,53.75c1.25,12.19,2.31,24.54,1.73,36.74a102,102,0,0,1-18.31,54.47,20.84,20.84,0,0,1-1.55,2c-.19.23-.56.3-1.59.79-1.56-6.62-3.07-13.08-4.61-19.66,7.85-3.82,13.74-9.21,17.08-17,2.81-6.57.55-12.73-5.43-16.7-8-5.31-16.65-10.05-23.41-16.67A41,41,0,0,1,438,345.87c-1-18.17-8.37-33.51-18.49-48a47.94,47.94,0,0,1-5.28-9.49c-3.33-8.37-9.59-14-17.25-17.81s-15.62-6.26-23.48-9.26c-7.23-2.77-14.43-5.65-21.75-8.17-9.7-3.34-19.36-7-29.3-9.4-11.92-2.9-24.05-5.34-36.5-3.22-12.09,2.06-24.21,3.94-36.28,6.12a28.11,28.11,0,0,0-7.89,3c-7.17,3.78-14.79,5.35-22.81,6.4-20.6,2.7-39,11-53.92,25.5a59.58,59.58,0,0,0-15.58,26.26c-2.39,8.05-6.29,15.67-9.69,23.4-3.87,8.79-8.16,17.4-11.83,26.27-2.54,6.14-8.26,8.26-13,11.69-6.17,4.45-13.16,8.15-18.25,13.61-10.35,11.11-2.49,21.27,9.44,26.48a24.38,24.38,0,0,0,3.86.93c-3,7.53-5.93,14.8-9.41,23.49-2.22-4.61-4.73-8.15-5.66-12.08-2.26-9.48-4.48-19.07-5.43-28.74-2-20.81-3.84-41.69-4.66-62.58-.42-10.7.84-21.58,2.47-32.21C89,286.39,92,275,94.73,263.51c.43-1.79,2.13-3.42,3.55-4.81,1.94-1.9,4-3.71,6-5.47h0c3.51-3.07,3.61-13.14,3.61-13.14h0c0-.72,0-1.52,0-2.41a24.15,24.15,0,0,0-2.47-11.26c-.91-1.82-4.51-3.5-6.61-3.21s-4.53,2.94-5.2,5.06a23.09,23.09,0,0,0-1.07,10.79c2.7,15.05-26.8,6.79-26.8,6.79l2,7.09h0a7.93,7.93,0,0,1,.5,1.93c.4,2.63,2.45,5,3.52,7.54s2.89,5.52,2.68,8.16a271.62,271.62,0,0,1-3.38,27.13,159.35,159.35,0,0,0-1.53,42.22c1.57,17.86,3.79,35.66,5.19,53.53S80,428.57,90,443.9c1.76,2.7,4,5.12,6.13,7.9-1.33,9.22-3.29,19-4.08,28.93-3.14,39,3.15,76.26,21.84,110.92,23.37,43.34,58.64,72.1,106.52,84.59,10.23,2.66,20.91,3.64,31.42,5.18,3,.44,4.79,1,3.3,4.59-1.11.06-2.1.07-3.09.16-5.75.57-11.64.58-17.22,1.9s-8.18,6.57-6.71,11c1.7,5.12,6.32,7.66,11.94,6.14,2.85-.77,5.44-2.42,8.23-3.41,3.08-1.1,6.23-2.55,9.4-2.7,11.93-.55,13.61-2.06,14.39-13.79.09-1.37,1.45-3.6,2.52-3.79,4.5-.8,9.12-1,13.81-1.41.46,3.51.9,6.6,1.26,9.71.53,4.65,3.06,6.8,7.75,7.52,5.19.79,10.2,2.65,15.36,3.72,4.47.93,9.11,2.16,13.54,1.76,2.33-.21,5.11-3.27,6.35-5.72a6.82,6.82,0,0,0-2.84-9.14,27.25,27.25,0,0,0-9.59-3.85c-4.31-.65-8.78-.16-13.2-.16-.21-1.82-.37-3-.46-4.12s-.11-2.2-.17-3.36l2.2-.6c41-11.1,75.38-32.95,103.11-64.95q55.05-63.54,56-147.8c0-1.5.28-3.69,1.26-4.38,20-14,26.92-35.56,32.37-57.62C505.93,382.27,502.55,363.07,501.25,344.08ZM97.7,446.19c-6.93-9-13.09-18.4-14.69-29.48-2.63-18.2-4.27-36.53-6.23-54.82-1.1-10.23-2.17-20.47-3-30.72-1.36-17.41,2.6-34.38,4.54-51.51.87-7.69,2.6-15.52-4-22-1.44-1.42-1.56-4.2-2.8-7.88l14.15,3.43a6.5,6.5,0,0,0,1.9.39c5.8-.39,10.53-6.9,9.94-12.71-.44-4.24.08-8.58.17-12.88l2.54-.67c1.1,1.47,2.66,2.79,3.22,4.44,3.33,9.73-.36,18.89-9.29,24.26a7.66,7.66,0,0,0-3.28,3.89C84.07,283.27,79.27,307.06,80,331.43c.54,18.88,2.53,37.74,4.5,56.54A244.43,244.43,0,0,0,90,420.22c1.46,6,5.31,11.35,7.57,17.19C98.58,440,98.3,443.11,97.7,446.19ZM385.09,276c5.9,4.7,8.79,10.49,10.58,17.37.44,1.7,1.82,3.12,2.51,4.78,2.54,6.2,5.32,12.34,7.37,18.7,2.74,8.52,5.05,17.17,7.22,25.85,1.57,6.27,2.05,12.85,4,19,1.84,5.65,5,10.86,7.87,16.77-4.6-1.61-9.65-3.6-14.83-5.12a50,50,0,0,0-9.69-1.6c-7-.63-13.34-2.75-17.9-8.24-2-2.44-3.19-5.64-4.46-8.62-5.58-13-4.63-26.9-5.29-40.59a27.19,27.19,0,0,0-2.06-8.66c-4.16-10.29-8.22-20.64-13-30.63-2.43-5.1-6.31-9.5-9.57-14.2-1-1.45-2.14-2.83-4-5.3C360.26,259.37,373.16,266.53,385.09,276ZM343.9,262.41c6.77,7.35,10.07,15.61,13.46,24.31,2.17,5.56,4.8,11,6.57,16.64A107.28,107.28,0,0,1,368.28,322c.8,6.57-.54,13.48.77,19.89,1.7,8.29,5.1,16.24,7.92,24.8-2.87,0-6.43.4-9.87-.08-10-1.39-20-3-30-4.8-9.16-1.7-14.24-7.75-16.32-16.59a135.36,135.36,0,0,1-3.22-36.58c.23-5.73-.9-11.51-1.5-17.27-.38-3.62-.88-7.24-1.38-10.85-1.16-8.33-2.05-16.72-3.69-24.95-.64-3.24-3-6.15-4.92-9.89C320.91,247.32,333.5,251.1,343.9,262.41ZM278.64,246a106.73,106.73,0,0,1,11.39-1.3,16.82,16.82,0,0,1,17.51,14.76c2.08,13.84,4.43,27.65,5.8,41.57.73,7.36-1.16,15-.44,22.34.94,9.69,3.08,19.29,5.18,28.82.57,2.55,2.88,4.71,4.82,7.71l-73.44.83c2.39-5.37,6.24-11.59,7.91-18.36a211.68,211.68,0,0,0,4.87-30.82c.81-8.55,0-17.24.48-25.83.54-9.08,1.67-18.14,2.87-27.16C266.39,252.53,272.51,246.89,278.64,246Zm-22.32,3.48c3.09-.54,6.14-1.2,9-1.77-6.55,15.2-7,31-7.18,47.22-.18,17.3,1.58,35.39-7.89,51.5-1,1.66-1.23,3.77-1.76,5.69-1.94,6.93-8.91,10.95-15.95,10.89-10.07-.09-20.14,0-30.86,0,10.94-7.53,8.13-20.1,10.74-30.73,3.12-12.68,4.64-25.75,7.68-38.45,1.68-7,5.67-13.45,7.58-20.42C231.73,258.58,242.17,252,256.32,249.5Zm-27.95,10C225.2,267,222,273.18,219.9,279.7c-2.65,8.15-4.69,16.52-6.57,24.89-2.14,9.52-3.86,19.13-5.66,28.72a68.21,68.21,0,0,0-1.3,9.83c-.54,13.67-8.16,20-21,21.11-7.27.61-14.73-1.11-21.8-1.75,2.43-6.62,4.65-12.26,6.58-18,4.25-12.71,6.91-26.21,12.93-38,6.3-12.35,14.95-23.8,24.17-34.23C212.15,266.69,220.47,264.11,228.37,259.54ZM96.45,390.32c3.38,7.23,8.09,12.15,15.35,14.33C103,404.87,96,398.41,96.45,390.32ZM112.21,381a26.13,26.13,0,0,1-9.74,2.36c2.68-2,5.31-4.16,8-6.12,1.89-1.35,3.94-2.49,5.9-3.75,7.88-5,14.83-10.28,17.85-20.29,2.69-8.93,8.28-17,12.33-25.52,2.47-5.24,5.06-10.55,6.54-16.11a59.42,59.42,0,0,1,28.23-37.09c8.8-5.17,18.72-8.45,28.18-12.45,1.1-.47,2.51-.2,4.51-.31-4.42,3.33-8.63,5.77-11.85,9.15s-5.17,7.54-7.76,11.33c-2.34,3.41-4.27,7.32-7.25,10.05-7.68,7-10.39,16.37-13.35,25.72-3.6,11.36-7.32,22.7-11,34-2.11,6.42-7.63,9.26-13.14,11.85C137.24,369.68,124.73,375.35,112.21,381ZM258,694.74c-4.28.36-8.45,2.28-12.64,3.59-2.65.83-5.21,2.42-7.87,2.55-1.55.08-3.94-1.75-4.56-3.29-.44-1.08,1.05-3.78,2.39-4.57a17.86,17.86,0,0,1,7.06-1.92,84.71,84.71,0,0,1,9.43-.2c7.88,0,8.35-.44,8.32-8.7h6.81c.12,1,.28,1.85.31,2.65C267.52,693.63,266.78,694,258,694.74Zm54-6.42a46.62,46.62,0,0,1,13.46,2.57c1.41.45,3.15,3.48,2.8,4.85s-3,3-4.75,3.09c-2.7.12-5.47-.92-8.18-1.57-5.61-1.36-11.15-3.06-16.82-4.08-3-.53-4.6-1.53-4.75-4.57,0-.83-.14-1.65-.22-2.48-.77-7.72-.44-8,7.71-7.77a8,8,0,0,1,.44,1.33C302.79,688.45,302.94,688.25,311.94,688.32ZM419.68,575.05c-20.21,43.07-52,73.6-98.85,86.1-11.31,3-23.2,3.85-29.53,4.85-50-1.08-86.85-19.06-117.29-50.76s-47.69-70-53.3-113.49c-5.94-46.1,2.26-89.32,27.11-129,2.94-4.7,10.91-7.57,18-6,16,3.65,32.13,1.55,48.22,1.43,3.81,0,7.62-.49,11.43-.74,15.56-1,31.12-2.59,46.69-2.85,19-.32,38,.05,56.89,1,10,.48,20,2.75,30,4.2,6.39.93,12.81,1.66,19.17,2.8,7.48,1.35,14.94,2.85,22.29,4.74,1.57.4,2.83,2.66,3.88,4.29a203.06,203.06,0,0,1,31,84.92C440.39,504.17,435.86,540.59,419.68,575.05Zm17.56-192.49c-3.92-3.79-8.6-7.22-11.24-11.79-3.05-5.26-4.52-11.52-6.17-17.49-3.06-11-5.76-22.13-8.58-33.21-1.18-4.65-2-9.42-3.57-13.93-1.18-3.38-3.44-6.37-5-9.63a99.83,99.83,0,0,1-4-9.48c-1.86-5.11-4.32-9.65-9.33-12.41a18.85,18.85,0,0,1-3.27-2.95l1-1.35c5.56,3.46,11.61,6.34,16.5,10.58,3.31,2.86,5,7.62,7.36,11.52,1.83,2.95,3.53,6,5.58,8.77,9.92,13.4,16,28.24,17,45,.63,10.4,6,19,11.26,27.31,2.52,4,7.45,6.45,11.47,9.35,5.32,3.83,10.83,7.4,15.94,11.77-10.11-3-20.24-6-30.32-9.13A12.09,12.09,0,0,1,437.24,382.56Zm55.19,33c-4.57,13.23-9.87,26.14-21,35.55-1.07.91-2.21,1.75-3.62,2.86-1.27-3.53-.29-5.19,1.65-7.8,5.6-7.54,11.23-15.39,14.88-24a108.62,108.62,0,0,0,8.43-53.58c-2.27-23.46-4.36-47-8-70.25a200.57,200.57,0,0,0-15.37-50.82c-.6-1.36-1.48-2.75-1.56-4.17-.31-5.39-3.94-7.65-8.39-8.42-4.24-.73-6.29-3.1-7.73-6.76-2.92-7.39-5.46-14.74-1.28-22.51a6.34,6.34,0,0,1,.8-1.23,8.93,8.93,0,0,1,1.68-.91c.57,2.9,1.26,5.53,1.56,8.21s0,5.67.37,8.46c.85,6.78.94,6.71,7.7,6.63a13.8,13.8,0,0,1,3.77,1c1.08.31,2.15.64,3.55,1.06.5-1.6.9-2.91,1.33-4.27l7.88-.7a65.91,65.91,0,0,0-1.94,6.63c-.55,3.13-2.07,6.86-1,9.4,9.61,22.74,14,46.77,16.91,71,2.81,23.38,3.9,47,5.4,70.5C499.25,393.21,496.24,404.53,492.43,415.55Z"/></svg>