<svg id="Calque_1" data-name="Calque 1" xmlns="http://www.w3.org/2000/svg" viewBox="0 0 745.8 209.97"><defs><style>.cls-1{fill:none;}.cls-2{fill:#231916;}</style></defs><title>MENU</title><path class="cls-1" d="M103.81,201.94l0,.1,0,0Z" transform="translate(-45.16 -31.08)"/><path d="M298.23,238.5l-3.49-.64q-3.83-.3-7.48-5.24t-3.65-14.15V69.24q0-7-.32-10.82a37,37,0,0,0-2.71-9.85,19.56,19.56,0,0,0-7-9.23q-4.62-3.17-13.84-5.72t-24.48-2.54q-15.27,0-28.63,11.6T188.2,68a72.55,72.55,0,0,0-.95-13.35q-1-4.77-5.09-11.13T168,34.1q-10-3-26.88-3c-11.24,0-21.85,3.44-30.53,11.76-5.69,5.46-9.11,8.89-13,14.43a1.29,1.29,0,0,0-.42.39c-1.76,2.61-3.55,5.21-5.34,7.8V32.35L69.58,48.66V97.47c-1,1.5-2,3-3.06,4.49-8.47,11.31-16.19,23.57-19.59,37.41-3.34,13.6-2.27,29.13,6,40.87,3.79,5.4,9.9,10.39,16.69,10.33V241H91.69a32.09,32.09,0,0,1,2.16-8.5c3.1-7.74,8.56-14,11.8-22.25a53,53,0,0,0,1.78-5.84c1.43-5.94,1.51-12.55-1.72-17.95a11.41,11.41,0,0,0-6.56-5.45,17.31,17.31,0,0,0-8.94.52c-5.74,1.62-10.9,5-16.79,6.06h0a23.93,23.93,0,0,1-2.85.4c-6,.62-11.69-3.78-15.1-8.42a41.3,41.3,0,0,1-7.3-18.32c-1.66-11,.54-21.91,4.78-32a1,1,0,0,0,.11-.17A98.83,98.83,0,0,1,61,114.84q3.78-5.86,7.7-11.64c.54-.77,2.19-3.14,2.46-3.64,6-8.75,12.07-17.4,18.14-26.08q4.62-6.6,9.16-13.26a100.32,100.32,0,0,1,9.46-11.34q14.79-15.26,31.33-15.26t21.62,8q5.09,7.95,5.09,27.35V241H188.2V78.14q0-12.72,14.79-28.62t33.87-15.9q14.31,0,19.39,8t5.09,27.35V218.47l.32,5.4q.31,5.73,7.16,11.45T288.69,241h19.4V238.5ZM103.81,201.94v.13l0,0Z" transform="translate(-45.16 -31.08)"/><path class="cls-2" d="M316.55,159.05l-.1.08.18-.12Z" transform="translate(-45.16 -31.08)"/><path class="cls-2" d="M331.55,150l-.17.14.34-.17Z" transform="translate(-45.16 -31.08)"/><path class="cls-2" d="M374.77,236.16l-5.26-1.48C371.15,235.23,372.91,235.72,374.77,236.16Z" transform="translate(-45.16 -31.08)"/><path class="cls-2" d="M398.38,238c-3.05.16-5.93.18-8.66.08-22.63-1.85-33.93-11.34-33.93-11.34-18.8-14.25-19.68-48-19.71-49.41l112.52-36q0-30.5-17.79-46.07T387,79.67q-32.42,0-53.37,21.92-19.92,20.82-20.88,57.75c-3.26,2.73-6.33,6-7,10.11-.85,5.18,3,9.14,7.89,10.16q3.42,27.46,19,42.37,20,19.07,51.94,19.06t57.34-9.84L441,229A147.45,147.45,0,0,1,398.38,238Zm-66.83-88,.17,0-.34.17Zm-14.91,27.79c-2.71-.09-5.58-.87-7.45-3s-1.62-5.28-.36-7.68a19.33,19.33,0,0,1,4.35-5.31h0a18.75,18.75,0,0,1,3.28-2.66l.1-.08.08,0a14.66,14.66,0,0,1,1.35-.76h0a81.7,81.7,0,0,1,9.82-4.3c1.21-.49,2.41-1,3.57-1.54a50.25,50.25,0,0,0,6.58-3.67,39.85,39.85,0,0,0,9.53-9.38c4.18-5.8,5.84-12.24,5.8-19.33,0-4.06-.34-8.16.37-12.18a30.44,30.44,0,0,1,3-8.86,31.88,31.88,0,0,1,13-13.26,38,38,0,0,1,16.07-3.52q18.12,0,29.55,14.61c7.62,9.75,11.54,28.36,11.75,48.69l-90.9,29.14A60.18,60.18,0,0,1,316.64,177.75Zm52.87,56.93,5.26,1.48C372.91,235.72,371.15,235.23,369.51,234.68Z" transform="translate(-45.16 -31.08)"/><path class="cls-2" d="M316.7,159l-.07,0-.18.12-.18.13Z" transform="translate(-45.16 -31.08)"/><path class="cls-2" d="M318,158.25h0a14.66,14.66,0,0,0-1.35.76l.07,0C317,158.78,317.44,158.54,318,158.25Z" transform="translate(-45.16 -31.08)"/><path class="cls-2" d="M617.48,238.49l-3.51-.64q-3.83-.32-7.5-5.26t-3.66-14.2V118.52q0-15.63-8-25.53-5.12-6-16.12-9.41t-28.56-3.35q-17.53,0-32.22,12a80.08,80.08,0,0,0-11.27,11.07s-.09,0-.13.1c-3,3.56-5.89,7.24-8.7,11V81.51L475.49,98.07v48.79c-3.23,5.28-6.2,10.94-7.25,17.09-1.25,7.35,1.23,16.3,7.25,20.87V241h22c0-9.75,4.58-18.51,9.69-26.64,2.18-4.58,4.77-9.23,5.49-14.31a15.87,15.87,0,0,0-5.13-14,15.43,15.43,0,0,0-12.51-3.55,12.47,12.47,0,0,0-1.32.33c-5.15,1.53-10.05,3.92-15.25.88-4.69-2.73-7.71-8.23-8.13-13.58-.53-6.76,2.27-13.31,5.52-19.07,2.75-4.87,5.91-9.54,9-14.19a360.89,360.89,0,0,1,22.3-30.44v0a92.4,92.4,0,0,1,6.89-7.57q16.27-16.11,36.7-16.12,9.88,0,16.59,3.19,13.08,7,13.08,32.23V218.39l.32,5.43q.32,5.73,7.18,11.48T607.91,241h19.46v-2.55Z" transform="translate(-45.16 -31.08)"/><path d="M781.1,237.23l-3.5-.64c-2.54-.21-5-2-7.47-5.24s-3.66-8-3.66-14.16V181c3.51-6,5.72-12.74,4.48-19.68a23.72,23.72,0,0,0-4.48-10V80.77H744.31a1.15,1.15,0,0,0-1.38.51c-4.57,7.47-5.84,16.62-5.32,25.23A55.51,55.51,0,0,0,745.18,132c5.51,9,15.54,13.91,20.82,23.11,5.46,9.52,1.85,20.37-4.24,28.68-4.31,5.89-9.45,11.23-14.26,16.7-1.09,1.24-2.2,2.47-3.29,3.71a1.75,1.75,0,0,0-.61.69C739.84,209.1,732.07,218,732,218.17c-1.49,1.67-3.07,3.35-4.83,5.07q-15.75,15.25-35.78,15.26-9.85,0-16.22-3.18-13.35-7-13.35-32.12V80.77l-22.27,16V202.88q0,15.59,8.27,25.44,4.77,6,15.74,9.39T691.9,241q17.33,0,32-11.92a83.67,83.67,0,0,0,10.36-10l10-11.17v9.19l.32,5.41q.32,5.73,7.16,11.45t19.87,5.72H791v-2.54ZM744.21,84.33a3,3,0,0,0-.33.38l.33-.65Z" transform="translate(-45.16 -31.08)"/></svg>